<svg width="125" height="119" viewBox="0 0 125 119" fill="none" xmlns="http://www.w3.org/2000/svg">
<g clip-path="url(#clip0_1662_6859)">
<path opacity="0.75" d="M117.83 30.96L124.77 15.62L104.65 6.52002L97.7102 21.86L93.7202 30.68L53.7102 63.2L52.6202 35.25L3.7002 75L26.5002 85.31L100.66 118.86L97.3002 32.3L101.29 23.48L117.83 30.96Z" fill="#CFD8DC"/>
<path d="M26.3359 77.8484L91.0267 25.251L94.2647 108.59L26.3359 77.8484Z" fill="#FFD95C" stroke="#2576B9" stroke-width="3.922" stroke-miterlimit="10"/>
<path d="M69.4629 42.7834L92.1091 53.0306" stroke="#2576B9" stroke-width="3.922" stroke-miterlimit="10"/>
<path d="M47.9001 60.316L46.8273 32.5364L3.7002 67.5914L26.3365 77.8485L47.9001 60.316Z" fill="#FFD95C" stroke="#2576B9" stroke-width="3.922" stroke-miterlimit="10"/>
<path d="M91.0273 25.251L101.268 2.58997" stroke="#2576B9" stroke-width="3.922" stroke-miterlimit="10"/>
<path d="M117.7 10.034L101.266 2.59412L95.98 14.2847L112.414 21.7247L117.7 10.034Z" fill="white" stroke="#2576B9" stroke-width="3.922" stroke-miterlimit="10"/>
</g>
<defs>
<clipPath id="clip0_1662_6859">
<rect width="124.77" height="118.86" fill="white"/>
</clipPath>
</defs>
</svg>
