<svg width="103" height="103" viewBox="0 0 103 103" fill="none" xmlns="http://www.w3.org/2000/svg">
<g clip-path="url(#clip0_4055_3470)">
<path opacity="0.75" d="M77.9454 88.299L79.5329 80.2214C80.0387 77.6412 79.0509 75.1221 77.1708 73.542C76.2944 72.8068 75.2229 72.2763 74.0146 72.0467L65.923 70.4732L65.9701 70.2291C69.5884 69.6939 73.0746 68.3496 76.199 66.2485C79.4061 64.0921 82.0118 61.2842 83.8815 58.0375C85.2842 57.6395 86.6312 57.0279 87.8761 56.1915C90.9758 54.1105 93.0842 50.9484 93.7999 47.292L96.25 34.8172C96.7559 32.2369 95.768 29.7179 93.8879 28.1377C93.1458 27.5107 92.251 27.0496 91.267 26.7765C91.3092 24.6369 90.3735 22.6385 88.7837 21.3063C87.9073 20.5711 86.8357 20.0406 85.6344 19.8094L50.5013 12.9969C48.6796 12.6436 46.7907 13.0278 45.254 14.0617C44.0601 14.8647 43.1492 16.0121 42.6375 17.3389C40.992 17.15 39.3262 17.5493 37.9408 18.4759C36.404 19.5098 35.3391 21.1079 34.9823 22.9249L32.5322 35.3997C31.8165 39.0561 32.5638 42.7749 34.6465 45.8629C35.3763 46.9523 36.2543 47.9206 37.2565 48.7586C37.3907 48.8668 37.525 48.9749 37.6663 49.0815C38.4981 55.0791 41.5168 60.6833 46.3203 64.7015C47.404 65.6085 48.5747 66.4156 49.7963 67.1237L49.7567 67.3369L41.5048 65.7341C39.6831 65.3808 37.7942 65.765 36.2575 66.7988C34.7208 67.8327 33.6558 69.4308 33.299 71.2478L31.7115 79.3254C31.3548 81.1424 31.7359 83.0183 32.7722 84.5562C33.1371 85.1009 33.576 85.585 34.0721 85.9979C34.9741 86.7491 36.058 87.2695 37.2298 87.5001L69.7551 93.8165C71.5769 94.1698 73.4587 93.7872 75.0024 92.7517C76.5237 91.7141 77.5886 90.116 77.9454 88.299Z" fill="#CFD8DC"/>
<path d="M76.7183 85.112L78.3059 77.0344C78.8117 74.4542 77.8239 71.9351 75.9437 70.355C75.0673 69.6198 73.9958 69.0893 72.7875 68.8597L64.6959 67.2862L64.7431 67.0421C68.3613 66.5069 71.8475 65.1626 74.972 63.0615C78.179 60.9051 80.7848 58.0972 82.6545 54.8505C84.0572 54.4525 85.4042 53.8409 86.649 53.0045C89.7488 50.9235 91.8571 47.7614 92.5729 44.105L95.023 31.6302C95.5288 29.0499 94.541 26.5309 92.6609 24.9507C91.9187 24.3237 91.0239 23.8626 90.04 23.5895C90.0821 21.4499 89.1464 19.4515 87.5566 18.1193C86.6802 17.3841 85.6087 16.8536 84.4074 16.6224L49.2742 9.80988C47.4525 9.45664 45.5637 9.84079 44.0269 10.8747C42.8331 11.6776 41.9221 12.8251 41.4104 14.1519C39.765 13.963 38.0991 14.3623 36.7137 15.2889C35.177 16.3228 34.112 17.9209 33.7553 19.7379L31.3052 32.2127C30.5894 35.8691 31.3368 39.5879 33.4195 42.6759C34.1493 43.7653 35.0273 44.7336 36.0294 45.5716C36.1637 45.6797 36.298 45.7879 36.4392 45.8945C37.2711 51.8921 40.2897 57.4963 45.0932 61.5145C46.1769 62.4215 47.3477 63.2286 48.5692 63.9367L48.5297 64.1499L40.2777 62.5471C38.456 62.1938 36.5672 62.578 35.0305 63.6118C33.4937 64.6457 32.4288 66.2438 32.072 68.0608L30.4845 76.1384C30.1277 77.9554 30.5088 79.8313 31.5451 81.3692C31.91 81.9139 32.349 82.398 32.845 82.8109C33.747 83.5621 34.8309 84.0825 36.0028 84.3131L68.5281 90.6295C70.3498 90.9828 72.2317 90.6002 73.7754 89.5648C75.2966 88.5271 76.3616 86.929 76.7183 85.112Z" fill="white"/>
<path d="M49.1446 18.3158L44.9799 39.5024C43.2137 48.5032 49.0899 57.2242 58.1141 58.973C67.1382 60.7219 75.8923 54.8505 77.6585 45.8498L81.8233 24.6631L49.1446 18.3158Z" fill="#FFD95C" stroke="#2576B9" stroke-width="3" stroke-miterlimit="10"/>
<path d="M81.2922 30.3932L86.9263 31.4877L84.7173 42.7334C84.1041 45.8413 81.087 47.8671 77.971 47.2599" fill="#FFD95C"/>
<path d="M81.2922 30.3932L86.9263 31.4877L84.7173 42.7334C84.1041 45.8413 81.087 47.8671 77.971 47.2599" stroke="#2576B9" stroke-width="3" stroke-miterlimit="10"/>
<path d="M44.1532 40.6965C41.0372 40.0894 39.0097 37.0837 39.6229 33.9758L41.8319 22.7301L47.4659 23.8245" fill="#FFD95C"/>
<path d="M44.1532 40.6965C41.0372 40.0894 39.0097 37.0837 39.6229 33.9758L41.8319 22.7301L47.4659 23.8245" stroke="#2576B9" stroke-width="3" stroke-miterlimit="10"/>
<path d="M58.1986 58.9904L55.2494 73.9783" stroke="#2576B9" stroke-width="3" stroke-miterlimit="10"/>
<path d="M70.2058 76.8766L40.1372 71.04L39.0322 76.6624L69.1008 82.4989L70.2058 76.8766Z" fill="#FFD95C" stroke="#2576B9" stroke-width="3" stroke-miterlimit="10"/>
<path d="M64.2346 27.8454L65.0441 34.5191L71.6656 35.8056L65.5467 38.6435L66.3561 45.3173L61.7655 40.3975L55.6551 43.2407L58.9321 37.3555L54.3414 32.4356L60.956 33.7237L64.2346 27.8454Z" fill="#FFD95C" stroke="#2576B9" stroke-width="3" stroke-miterlimit="10"/>
<path d="M21.5659 21.7844C21.5659 21.7844 18.2727 27.0168 13.0228 23.7418C13.0228 23.7418 18.2657 27.0184 14.974 32.2577C14.974 32.2577 18.2673 27.0253 23.5171 30.3004C23.5156 30.2935 18.2657 27.0184 21.5659 21.7844Z" stroke="#2576B9" stroke-width="3" stroke-miterlimit="10" stroke-linecap="round" stroke-linejoin="round"/>
<path d="M16.8371 43.1282C16.8371 43.1282 20.4565 51.6747 11.8789 55.2885C11.8789 55.2885 20.4549 51.6678 24.0674 60.2159C24.0674 60.2159 20.448 51.6694 29.0256 48.0556C29.0272 48.0625 20.4565 51.6747 16.8371 43.1282Z" stroke="#2576B9" stroke-width="3" stroke-miterlimit="10" stroke-linecap="round" stroke-linejoin="round"/>
</g>
<defs>
<clipPath id="clip0_4055_3470">
<rect width="91" height="91" fill="white" transform="translate(11.9395) rotate(7.53894)"/>
</clipPath>
</defs>
</svg>
