<svg width="203" height="29" viewBox="0 0 203 29" fill="none" xmlns="http://www.w3.org/2000/svg">
<g clip-path="url(#clip0_4055_1082)">
<path d="M8.56018 24.8499C10.8002 22.7399 14.1002 19.6899 17.5002 16.8299C17.9002 16.4899 18.2902 16.1699 18.6702 15.8599L22.6802 28.6599H7.18018L8.56018 24.8499Z" fill="white"/>
<path d="M15.4898 5.72021L12.3398 14.4102C13.4998 13.9102 14.6298 13.4102 15.5498 12.9502C16.1798 12.6302 16.8298 12.3302 17.4698 12.0502L15.4898 5.72021Z" fill="white"/>
<path d="M27.7399 9.80018C27.1599 9.87018 25.8399 10.5102 23.6899 12.0102L25.1699 15.1502C25.8499 14.1702 26.4899 13.2302 26.9699 12.4102C28.2199 10.2502 28.7599 9.69018 27.7399 9.80018Z" fill="white"/>
<path d="M18.02 0L22.77 10.07C25.38 9.24 27.28 8.81 27.28 8.81C27.28 8.81 29.45 8.48 29.4 9.93C29.37 10.8 27.36 13.44 25.44 15.75L31.53 28.66V0H18.02Z" fill="white"/>
<path d="M13.06 0H0V27.34L13.06 0Z" fill="white"/>
<path d="M54.0901 21.01C53.6601 20.97 53.2901 20.87 52.9801 20.7C52.6601 20.53 52.4001 20.25 52.1901 19.86C51.7101 18.97 51.2601 18.03 50.8301 17.06C50.4001 16.09 49.9801 15.1 49.5701 14.1C49.1601 13.1 48.7701 12.1 48.3901 11.1C48.0201 10.1 47.6601 9.12004 47.3201 8.19004C47.2701 8.00004 47.2001 7.81004 47.1301 7.63004C47.0501 7.44004 46.9801 7.26004 46.9201 7.09004C46.9001 7.05004 46.8801 7.04004 46.8401 7.04004C46.8001 7.04004 46.7801 7.06004 46.7601 7.09004C46.4401 7.97004 46.1101 8.85004 45.7801 9.75004C45.4501 10.65 45.1301 11.55 44.8201 12.44C44.3901 13.65 43.9601 14.85 43.5301 16.04C43.1101 17.23 42.6601 18.42 42.1801 19.6C42.0001 20.03 41.7501 20.38 41.4201 20.62C41.0901 20.85 40.6701 21.01 40.1901 21.09C40.1501 21.1 40.1401 21.13 40.1401 21.17C40.1601 21.21 40.1701 21.24 40.2101 21.24C40.3501 21.22 40.4801 21.22 40.6201 21.21C40.7401 21.2 40.8901 21.2 41.0201 21.18C41.2401 21.16 41.4501 21.13 41.6901 21.12C41.9101 21.11 42.1401 21.09 42.3601 21.09C42.5701 21.09 42.7801 21.1 43.0001 21.12C43.2201 21.13 43.4201 21.15 43.6401 21.18C43.7401 21.2 43.8501 21.2 43.9601 21.2C44.0701 21.2 44.1701 21.21 44.2801 21.21V21.06C44.1801 21.05 44.0701 21.04 43.9401 21.02C43.8301 21 43.7201 20.96 43.6101 20.92C43.5101 20.87 43.4301 20.79 43.3601 20.72C43.2901 20.64 43.2501 20.54 43.2501 20.41C43.2501 20.22 43.3201 19.91 43.4301 19.49C43.5501 19.06 43.6901 18.62 43.8401 18.15C43.9901 17.68 44.1601 17.23 44.3101 16.79C44.4801 16.35 44.6001 16.03 44.6901 15.81H48.6701C48.9701 16.61 49.2801 17.41 49.5901 18.2C49.9001 18.99 50.2001 19.79 50.5101 20.59L49.4901 21.06C49.4501 21.09 49.4401 21.13 49.4501 21.17C49.4601 21.21 49.4901 21.23 49.5201 21.21C49.5801 21.2 49.6601 21.2 49.7501 21.2C49.8401 21.2 49.9101 21.2 49.9801 21.18C50.2801 21.16 50.6001 21.13 50.9201 21.11C51.2301 21.09 51.5301 21.08 51.8601 21.08C51.9901 21.08 52.1201 21.08 52.2601 21.09C52.4001 21.11 52.5201 21.12 52.6501 21.13C52.8001 21.15 52.9601 21.17 53.1301 21.18C53.3001 21.19 53.4601 21.19 53.6301 21.17L54.0901 21.15C54.1301 21.15 54.1401 21.13 54.1401 21.08C54.1401 21.03 54.1301 21.01 54.0901 21.01ZM44.9501 15C45.2101 14.26 45.4501 13.54 45.6701 12.82C45.8901 12.11 46.1201 11.38 46.3701 10.63C46.4201 10.47 46.4701 10.3 46.5301 10.13C46.5901 9.96004 46.6501 9.78004 46.7101 9.61004L48.3701 15H44.9501Z" fill="white"/>
<path d="M62.1301 12.19C62.3201 11.66 62.4201 11.12 62.4201 10.58C62.4201 9.94 62.3301 9.41 62.1701 9C61.9901 8.58 61.7501 8.25 61.4301 8C61.1101 7.75 60.7201 7.58 60.2601 7.48C59.8101 7.37 59.3001 7.33 58.7301 7.33H56.4001C55.9201 7.33 55.4401 7.32 54.9501 7.31C54.4701 7.29 53.9801 7.27 53.4901 7.25C53.4501 7.25 53.4301 7.27 53.4201 7.31C53.4101 7.35 53.4301 7.37 53.4601 7.38C53.6201 7.42 53.8001 7.48 53.9701 7.56C54.1401 7.64 54.3001 7.74 54.4401 7.85C54.5801 7.97 54.7001 8.11 54.7801 8.27C54.8801 8.42 54.9201 8.6 54.9201 8.78V19.2C54.9201 19.5 54.9201 19.76 54.9101 19.96C54.8901 20.16 54.8501 20.34 54.7701 20.49C54.7001 20.63 54.5701 20.75 54.4001 20.84C54.2201 20.92 53.9801 20.99 53.6601 21.05C53.6201 21.06 53.6101 21.09 53.6201 21.13C53.6301 21.18 53.6501 21.2 53.6801 21.2C53.9701 21.21 54.2501 21.21 54.5501 21.21H55.4201H58.2901C58.3201 21.21 58.3401 21.2 58.3401 21.14C58.3401 21.09 58.3301 21.06 58.2901 21.06C57.6801 21.04 57.2601 20.9 57.0101 20.65C56.7501 20.39 56.6301 19.96 56.6301 19.38V8.17C57.1001 7.97 57.5601 7.87 57.9801 7.87C58.4401 7.87 58.8601 7.98 59.2201 8.19C59.6001 8.4 59.9001 8.68 60.1701 9.03C60.4301 9.38 60.6101 9.76 60.7501 10.18C60.8801 10.61 60.9501 11.03 60.9501 11.45C60.9501 11.92 60.8701 12.37 60.7301 12.77C60.5801 13.17 60.3801 13.51 60.1101 13.8C59.8401 14.09 59.5201 14.31 59.1201 14.47C58.7301 14.62 58.2901 14.7 57.8101 14.7H57.6001C57.5401 14.7 57.4701 14.69 57.4001 14.68C57.3701 14.67 57.3501 14.68 57.3301 14.74C57.3201 14.79 57.3401 14.82 57.3801 14.83C57.7501 14.93 58.1201 14.98 58.4701 14.98C59.0401 14.98 59.5701 14.85 60.0501 14.6C60.5401 14.34 60.9501 14 61.3101 13.59C61.6501 13.18 61.9201 12.71 62.1301 12.19Z" fill="white"/>
<path d="M77.2002 11.6299C76.8002 10.6899 76.2602 9.86992 75.5602 9.15992C74.8702 8.46992 74.0402 7.91992 73.1002 7.50992C72.1602 7.10992 71.1502 6.91992 70.0702 6.91992H69.9002C69.8402 6.91992 69.7902 6.92992 69.7402 6.93992C68.5302 7.17992 67.5302 7.50992 66.7002 7.89992C65.8802 8.29992 65.2002 8.79992 64.6902 9.41992C64.1702 10.0399 63.8102 10.7999 63.5802 11.6799C63.3502 12.5699 63.2402 13.6299 63.2402 14.8599C63.2402 15.4099 63.3502 15.9499 63.5602 16.4899C63.7702 17.0299 64.0602 17.5399 64.4302 18.0299C64.8002 18.5199 65.2202 18.9699 65.7102 19.3999C66.1802 19.8199 66.7002 20.1899 67.2302 20.5099C67.7702 20.8199 68.3202 21.0599 68.8902 21.2399C69.4502 21.4099 69.9902 21.4999 70.5102 21.4999C71.4802 21.4999 72.4002 21.3299 73.2702 20.9899C74.1502 20.6599 74.9202 20.1899 75.5802 19.5799C76.2502 18.9699 76.7802 18.2499 77.1802 17.4199C77.5702 16.5799 77.7702 15.6699 77.7702 14.6899C77.7902 13.5899 77.5902 12.5799 77.2002 11.6299ZM75.8102 16.9599C75.5702 17.6999 75.2302 18.3399 74.7702 18.8899C74.3102 19.4599 73.7402 19.8999 73.0702 20.2299C72.4102 20.5599 71.6402 20.7299 70.7802 20.7299C69.8502 20.7299 69.0202 20.5199 68.3102 20.0999C67.5902 19.6799 66.9902 19.1399 66.4902 18.4799C66.0002 17.8099 65.6202 17.0699 65.3702 16.2299C65.1102 15.3899 64.9802 14.5499 64.9802 13.7199C64.9802 12.8899 65.1002 12.1099 65.3302 11.3899C65.5702 10.6499 65.9202 10.0099 66.3802 9.46992C66.8502 8.92992 67.4202 8.49992 68.0902 8.17992C68.7702 7.85992 69.5502 7.69992 70.4202 7.69992C71.3402 7.69992 72.1702 7.90992 72.8802 8.31992C73.5902 8.72992 74.1902 9.26992 74.6702 9.93992C75.1502 10.5999 75.5202 11.3399 75.7602 12.1699C76.0202 12.9999 76.1402 13.8199 76.1402 14.6699C76.1502 15.4599 76.0302 16.2299 75.8102 16.9599Z" fill="white"/>
<path d="M86.9798 18.7798C86.9898 18.7298 86.9898 18.6798 86.9998 18.6098L86.8498 18.5598C86.5598 19.1498 86.1598 19.6298 85.6098 19.9898C85.0698 20.3498 84.4698 20.5298 83.8198 20.5298C83.4798 20.5298 83.1598 20.4798 82.8798 20.3698C82.5798 20.2798 82.3398 20.1298 82.1298 19.9398C81.9198 19.7498 81.7398 19.5198 81.6198 19.2498C81.4898 18.9798 81.4298 18.6698 81.4298 18.3098V8.84979C81.4298 8.43979 81.5798 8.11979 81.8698 7.87979C82.1598 7.63979 82.4898 7.48978 82.8498 7.42978C82.8898 7.41978 82.8998 7.38979 82.8998 7.33979C82.8898 7.29979 82.8798 7.27979 82.8398 7.27979C82.4698 7.29979 82.1098 7.32979 81.7398 7.35979C81.3698 7.36979 80.9998 7.37979 80.6298 7.37979C79.8198 7.37979 79.0398 7.35978 78.2798 7.32978V7.47978C78.6798 7.49978 79.0098 7.60979 79.2998 7.85979C79.5798 8.10979 79.7298 8.43978 79.7298 8.86978V19.1998C79.7298 19.3898 79.6998 19.5698 79.6398 19.7698C79.5798 19.9698 79.4998 20.1698 79.3998 20.3498C79.2898 20.5198 79.1598 20.6798 78.9998 20.7998C78.8398 20.9298 78.6698 20.9898 78.4798 21.0098C78.4398 21.0098 78.4198 21.0298 78.4198 21.0798C78.4198 21.1298 78.4398 21.1498 78.4798 21.1498C78.6298 21.1498 78.7998 21.1298 78.9798 21.1298C79.1798 21.1298 79.3598 21.1198 79.5298 21.1098C80.5498 21.0698 81.5798 21.0498 82.6198 21.0498C83.8798 21.0498 85.1498 21.1098 86.4198 21.2298C86.4498 21.2298 86.4698 21.2098 86.4998 21.1898C86.4998 21.1598 86.5298 21.1298 86.5598 21.0898C86.5598 21.0498 86.5398 21.0298 86.5398 21.0198C86.6898 20.6898 86.7898 20.3598 86.8298 19.9998C86.8798 19.6398 86.9198 19.2798 86.9498 18.9198C86.9698 18.8698 86.9698 18.8198 86.9798 18.7798Z" fill="white"/>
<path d="M95.99 18.7798C96 18.7298 96.01 18.6798 96.02 18.6098L95.87 18.5598C95.58 19.1498 95.17 19.6298 94.62 19.9898C94.08 20.3498 93.48 20.5298 92.82 20.5298C92.49 20.5298 92.17 20.4798 91.89 20.3698C91.59 20.2798 91.35 20.1298 91.14 19.9398C90.92 19.7498 90.75 19.5198 90.63 19.2498C90.51 18.9798 90.45 18.6698 90.45 18.3098V8.84979C90.45 8.43979 90.6 8.11979 90.89 7.87979C91.19 7.63979 91.52 7.48978 91.88 7.42978C91.92 7.41978 91.93 7.38979 91.93 7.33979C91.92 7.29979 91.9 7.27979 91.86 7.27979C91.5 7.29979 91.13 7.32979 90.76 7.35979C90.39 7.37979 90.02 7.38978 89.65 7.38978C88.84 7.38978 88.06 7.36979 87.29 7.33979V7.48978C87.69 7.50978 88.03 7.61978 88.31 7.86978C88.61 8.11978 88.74 8.44978 88.74 8.87979V19.1998C88.74 19.3898 88.71 19.5698 88.65 19.7698C88.6 19.9698 88.52 20.1698 88.4 20.3498C88.3 20.5198 88.16 20.6798 88.01 20.7998C87.85 20.9298 87.67 20.9898 87.49 21.0098C87.45 21.0098 87.44 21.0298 87.44 21.0798C87.44 21.1298 87.45 21.1498 87.49 21.1498C87.64 21.1498 87.8 21.1298 88 21.1298C88.2 21.1298 88.38 21.1198 88.55 21.1098C89.57 21.0698 90.6 21.0498 91.64 21.0498C92.91 21.0498 94.18 21.1098 95.46 21.2298C95.48 21.2298 95.51 21.2098 95.53 21.1898C95.54 21.1598 95.56 21.1298 95.59 21.0898C95.59 21.0498 95.58 21.0298 95.57 21.0198C95.72 20.6898 95.82 20.3598 95.87 19.9998C95.92 19.6398 95.97 19.2798 95.98 18.9198C95.98 18.8698 95.98 18.8198 95.99 18.7798Z" fill="white"/>
<path d="M109.23 11.6299C108.83 10.6899 108.29 9.86992 107.6 9.15992C106.9 8.46992 106.1 7.91992 105.15 7.50992C104.21 7.10992 103.2 6.91992 102.12 6.91992H101.95C101.89 6.91992 101.85 6.92992 101.8 6.93992C100.6 7.17992 99.5698 7.50992 98.7698 7.89992C97.9398 8.29992 97.2698 8.79992 96.7498 9.41992C96.2398 10.0399 95.8698 10.7999 95.6398 11.6799C95.4198 12.5699 95.2998 13.6299 95.2998 14.8599C95.2998 15.4099 95.4098 15.9499 95.6198 16.4899C95.8298 17.0299 96.1198 17.5399 96.4998 18.0299C96.8598 18.5199 97.2898 18.9699 97.7698 19.3999C98.2498 19.8199 98.7698 20.1899 99.2998 20.5099C99.8398 20.8199 100.4 21.0599 100.96 21.2399C101.52 21.4099 102.06 21.4999 102.59 21.4999C103.56 21.4999 104.48 21.3299 105.35 20.9899C106.22 20.6599 106.99 20.1899 107.66 19.5799C108.32 18.9699 108.85 18.2499 109.24 17.4199C109.63 16.5799 109.83 15.6699 109.83 14.6899C109.82 13.5899 109.62 12.5799 109.23 11.6299ZM107.84 16.9599C107.6 17.6999 107.27 18.3399 106.81 18.8899C106.35 19.4599 105.78 19.8999 105.11 20.2299C104.44 20.5599 103.67 20.7299 102.82 20.7299C101.89 20.7299 101.07 20.5199 100.35 20.0999C99.6298 19.6799 99.0198 19.1399 98.5298 18.4799C98.0398 17.8099 97.6598 17.0699 97.3998 16.2299C97.1498 15.3899 97.0198 14.5499 97.0198 13.7199C97.0198 12.8899 97.1498 12.1099 97.3698 11.3899C97.6098 10.6499 97.9598 10.0099 98.4298 9.46992C98.8898 8.92992 99.4598 8.49992 100.14 8.17992C100.82 7.85992 101.6 7.69992 102.47 7.69992C103.4 7.69992 104.21 7.90992 104.93 8.31992C105.64 8.72992 106.24 9.26992 106.72 9.93992C107.2 10.5999 107.57 11.3399 107.83 12.1699C108.08 12.9999 108.2 13.8199 108.2 14.6699C108.19 15.4599 108.07 16.2299 107.84 16.9599Z" fill="white"/>
<path d="M126.53 19.9301C126.57 19.6101 126.62 19.3001 126.69 18.9901L126.55 18.9801C126.41 19.5601 126.12 20.0201 125.68 20.3401C125.24 20.6601 124.71 20.8201 124.11 20.8201C123.89 20.8201 123.65 20.7901 123.41 20.7401C123.17 20.6901 122.93 20.6201 122.71 20.5101C122.47 20.4101 122.27 20.2701 122.08 20.1201C121.9 19.9601 121.73 19.7801 121.61 19.5701V14.2401H122.38H122.95C123.23 14.2401 123.51 14.2501 123.77 14.2701C124.05 14.2901 124.3 14.3201 124.54 14.3901C124.78 14.4301 124.93 14.5101 125.01 14.6001C125.12 14.7001 125.2 14.8001 125.22 14.9001C125.25 15.0101 125.28 15.1001 125.3 15.2001C125.33 15.3201 125.37 15.4001 125.4 15.5201C125.44 15.6201 125.49 15.6901 125.56 15.7401C125.58 15.7701 125.61 15.7801 125.65 15.7701C125.67 15.7401 125.69 15.7301 125.69 15.6901C125.72 15.4401 125.75 15.2001 125.78 14.9701C125.8 14.7401 125.84 14.4901 125.87 14.2301C125.9 14.0401 125.93 13.8401 125.94 13.6401C125.97 13.4301 126.01 13.2401 126.02 13.0201C126.02 12.9401 125.99 12.9201 125.93 12.9401C125.83 12.9701 125.73 13.0001 125.62 13.0401C125.52 13.0701 125.42 13.1201 125.31 13.1801C125.17 13.2401 125.04 13.3001 124.9 13.3701C124.76 13.4201 124.65 13.4501 124.56 13.4501H121.55V8.01014H123.6C124.18 8.01014 124.65 8.11014 125.02 8.31014C125.39 8.50014 125.6 8.91014 125.65 9.54014C125.65 9.57014 125.68 9.60014 125.73 9.62014C125.77 9.62014 125.79 9.61014 125.81 9.57014C125.83 9.51014 125.84 9.45014 125.85 9.41014C125.86 9.36014 125.88 9.31014 125.88 9.24014C125.95 8.91014 126.05 8.56014 126.11 8.21014C126.18 7.85014 126.24 7.50014 126.26 7.14014C126.26 7.04014 126.23 7.03014 126.15 7.08014C126.07 7.10014 125.92 7.15014 125.71 7.17014C125.49 7.20014 125.21 7.22014 124.9 7.24014C124.58 7.25014 124.24 7.25014 123.84 7.26014C123.44 7.27014 123.04 7.27014 122.64 7.27014C122.1 7.27014 121.53 7.27014 120.95 7.26014C120.36 7.24014 119.85 7.24014 119.42 7.24014H118.26C118.23 7.24014 118.22 7.25014 118.2 7.27014C118.19 7.30014 118.19 7.33014 118.22 7.35014C118.35 7.44014 118.49 7.52014 118.62 7.55014C118.74 7.61014 118.86 7.65014 118.99 7.67014C119.1 7.70014 119.21 7.72014 119.29 7.76014C119.39 7.78014 119.48 7.84014 119.56 7.89014C119.64 7.97014 119.69 8.05014 119.74 8.16014C119.78 8.27014 119.8 8.41014 119.8 8.61014V19.4401C119.8 19.6701 119.78 19.9101 119.77 20.1301C119.73 20.3501 119.67 20.5401 119.59 20.7101C119.49 20.8901 119.37 21.0401 119.19 21.1401C119.03 21.2501 118.81 21.3201 118.53 21.3201V21.4701C118.95 21.4601 119.35 21.4401 119.75 21.4401H120.98C121.4 21.4401 121.79 21.4401 122.19 21.4501C122.6 21.4501 122.99 21.4501 123.41 21.4501C123.82 21.4601 124.22 21.4601 124.63 21.4601H125.85L126.15 21.4101C126.19 21.3801 126.2 21.3501 126.2 21.3801C126.25 21.3801 126.28 21.3501 126.28 21.2901L126.35 20.8401V20.8601C126.43 20.5501 126.48 20.2401 126.53 19.9301Z" fill="white"/>
<path d="M143.44 7.48012C143.48 7.48012 143.5 7.48012 143.53 7.45012L143.51 7.30012C143.45 7.30012 143.37 7.30012 143.27 7.30012C143.17 7.29012 143.09 7.29012 143.02 7.29012C142.9 7.27012 142.76 7.26012 142.62 7.27012C142.48 7.30012 142.34 7.31012 142.23 7.32012L141.54 7.37012C141.19 7.39012 140.81 7.39012 140.43 7.34012C140.06 7.30012 139.69 7.26012 139.32 7.22012C139.28 7.20012 139.25 7.21012 139.22 7.24012C139.21 7.27012 139.21 7.31012 139.24 7.33012C139.33 7.40012 139.43 7.46012 139.55 7.47012C139.66 7.49012 139.78 7.51012 139.89 7.53012C140.01 7.55012 140.15 7.58012 140.27 7.61012C140.4 7.64012 140.52 7.69012 140.63 7.79012C140.74 7.88012 140.82 8.03012 140.89 8.21012C140.95 8.39012 140.99 8.65012 140.99 8.97012C140.99 10.5701 141 12.1601 141.04 13.7501C141.07 15.3401 141.1 16.9301 141.1 18.5301V18.6701C139.3 16.6401 137.51 14.6601 135.7 12.7401C133.92 10.8201 132.08 8.88012 130.19 6.94012C130.17 6.93012 130.12 6.93012 130.08 6.94012C130.02 6.99012 129.96 7.18012 129.93 7.50012C129.9 7.82012 129.88 8.25012 129.86 8.76012C129.84 9.28012 129.83 9.85012 129.83 10.5101C129.82 11.1601 129.82 11.8401 129.82 12.5301C129.82 13.5701 129.82 14.5801 129.83 15.5801C129.83 16.5801 129.84 17.4301 129.85 18.1301C129.86 18.4601 129.87 18.7401 129.87 18.9901V19.5201C129.87 19.7501 129.85 19.9401 129.81 20.0901C129.76 20.2301 129.7 20.3601 129.62 20.4501C129.55 20.5501 129.46 20.6301 129.35 20.6801C129.24 20.7601 129.15 20.8001 129.03 20.8601C128.93 20.9301 128.82 21.0001 128.72 21.0601C128.62 21.1201 128.5 21.2001 128.38 21.3001C128.34 21.3301 128.34 21.3601 128.36 21.4001C128.38 21.4301 128.4 21.4501 128.44 21.4301C128.76 21.3901 129.1 21.3501 129.44 21.3001C129.76 21.2601 130.09 21.2501 130.41 21.2501C130.65 21.2501 130.9 21.2601 131.13 21.2801C131.36 21.3001 131.59 21.3201 131.82 21.3501C131.99 21.3801 132.17 21.3901 132.36 21.4001C132.53 21.4201 132.72 21.4201 132.89 21.4301C132.93 21.4301 132.97 21.4201 132.97 21.3901C132.97 21.3601 132.97 21.3201 132.94 21.2901C132.78 21.1801 132.6 21.0901 132.46 21.0401C132.3 20.9901 132.15 20.9601 132.01 20.9301C131.89 20.9001 131.78 20.8801 131.66 20.8301C131.55 20.7901 131.46 20.7301 131.39 20.6301C131.28 20.5301 131.23 20.3901 131.19 20.2001C131.13 20.0301 131.13 19.7701 131.13 19.4201C131.13 18.7601 131.12 18.1101 131.07 17.4601C131.06 16.8101 131.02 16.1401 130.99 15.4801C130.96 14.8001 130.92 14.1301 130.91 13.4901C130.9 12.8101 130.89 12.1701 130.89 11.5101C130.89 11.2701 130.9 11.0401 130.91 10.8101C130.93 10.5801 130.93 10.3501 130.98 10.1001C131.24 10.3801 131.47 10.6501 131.66 10.8701C131.85 11.1101 132.08 11.3701 132.33 11.6701C133.85 13.3901 135.39 15.1101 136.93 16.8201C138.49 18.5101 140.15 20.1001 141.89 21.6001C141.91 21.6301 141.94 21.6301 141.97 21.6101C142.01 21.5801 142.01 21.5701 142.01 21.5401C142.12 20.3701 142.18 19.2001 142.22 18.0501C142.25 16.8901 142.26 15.7301 142.26 14.5601V12.9901C142.26 12.4601 142.25 11.9501 142.25 11.4101C142.23 10.8901 142.23 10.3801 142.23 9.84012V8.32012C142.23 8.19012 142.26 8.08012 142.32 7.98012C142.4 7.88012 142.49 7.82012 142.6 7.76012C142.72 7.70012 142.85 7.65012 142.97 7.62012C143.11 7.57012 143.23 7.54012 143.35 7.51012C143.4 7.49012 143.42 7.48012 143.44 7.48012Z" fill="white"/>
<path d="M158.81 14.9499C159.07 14.7999 159.37 14.6999 159.71 14.6299L159.69 14.4699C158.92 14.4299 158.16 14.4099 157.42 14.3999C156.67 14.3899 155.91 14.3899 155.15 14.3899C155.1 14.3899 155.07 14.3899 155.07 14.4299C155.06 14.4699 155.07 14.4899 155.1 14.5199C155.21 14.5799 155.3 14.6299 155.42 14.6699C155.52 14.7199 155.62 14.7399 155.73 14.7599C155.97 14.8399 156.18 14.9299 156.37 15.0499C156.57 15.1599 156.66 15.3699 156.66 15.6599V19.9799C156.34 20.3099 155.99 20.5099 155.56 20.5999C155.13 20.6899 154.68 20.7499 154.27 20.7499C153.28 20.7499 152.37 20.5599 151.53 20.1899C150.66 19.8099 149.93 19.2999 149.31 18.6399C148.68 18.0099 148.2 17.2599 147.85 16.3899C147.48 15.5399 147.3 14.6099 147.3 13.6399C147.3 12.7399 147.48 11.9199 147.8 11.1799C148.13 10.4299 148.57 9.77994 149.13 9.24994C149.71 8.71994 150.35 8.31994 151.13 8.01994C151.89 7.71994 152.7 7.56994 153.59 7.56994C154.1 7.56994 154.61 7.62994 155.1 7.75994C155.58 7.87994 156.02 8.05994 156.41 8.32994C156.81 8.58994 157.14 8.90994 157.41 9.31994C157.67 9.71994 157.86 10.1899 157.96 10.7299C157.96 10.7799 158 10.7899 158.04 10.7799C158.08 10.7799 158.1 10.7499 158.1 10.7199C158.12 10.6299 158.13 10.5599 158.16 10.4799C158.16 10.3899 158.17 10.2999 158.2 10.2199C158.25 9.76994 158.31 9.31994 158.38 8.88994C158.45 8.43994 158.49 7.98994 158.52 7.52994C158.52 7.48994 158.49 7.44994 158.44 7.44994C158.17 7.42994 157.92 7.38994 157.68 7.36994C157.44 7.32994 157.17 7.28994 156.93 7.23994C156.36 7.15994 155.78 7.09994 155.21 7.02994C154.62 6.96994 154.05 6.93994 153.48 6.93994C152.4 6.93994 151.39 7.08994 150.45 7.38994C149.51 7.68994 148.67 8.13994 147.97 8.71994C147.26 9.30994 146.7 10.0599 146.29 10.9399C145.87 11.8099 145.67 12.8099 145.67 13.9599C145.67 14.9499 145.83 15.8799 146.14 16.7699C146.45 17.6599 146.89 18.4499 147.44 19.1399C148.02 19.8499 148.7 20.3999 149.52 20.8399C150.33 21.2699 151.24 21.5299 152.25 21.6099C152.84 21.6399 153.4 21.6699 153.95 21.6699C154.32 21.6699 154.69 21.6599 155.09 21.6299C155.48 21.6199 155.88 21.5799 156.26 21.4899C156.66 21.4399 157.03 21.3199 157.4 21.1899C157.75 21.0599 158.09 20.8599 158.41 20.6399C158.44 20.6199 158.45 20.5999 158.45 20.5699V15.7499C158.42 15.3599 158.54 15.0899 158.81 14.9499Z" fill="white"/>
<path d="M170.05 18.99C170.06 18.96 170.07 18.89 170.09 18.84L169.93 18.77C169.63 19.38 169.2 19.86 168.65 20.24C168.1 20.61 167.49 20.79 166.82 20.79C166.48 20.79 166.17 20.75 165.87 20.64C165.57 20.53 165.31 20.39 165.08 20.2C164.89 20.02 164.69 19.77 164.57 19.49C164.45 19.22 164.38 18.89 164.38 18.54V8.83998C164.38 8.42998 164.54 8.08998 164.83 7.83998C165.13 7.59998 165.46 7.43998 165.83 7.36998C165.88 7.35998 165.89 7.32998 165.89 7.28998C165.88 7.22998 165.86 7.22998 165.82 7.22998C165.45 7.23998 165.06 7.26998 164.69 7.29998C164.31 7.32998 163.94 7.34998 163.55 7.34998C162.74 7.34998 161.94 7.32998 161.16 7.27998V7.43998C161.57 7.44998 161.91 7.56998 162.21 7.83998C162.5 8.07998 162.63 8.42998 162.63 8.84998V19.42C162.63 19.59 162.6 19.81 162.55 20.01C162.5 20.21 162.41 20.41 162.3 20.6C162.2 20.77 162.05 20.93 161.89 21.05C161.74 21.17 161.57 21.25 161.37 21.26C161.34 21.26 161.32 21.29 161.32 21.33C161.32 21.39 161.34 21.42 161.37 21.42C161.52 21.41 161.69 21.39 161.89 21.39C162.09 21.39 162.28 21.38 162.45 21.38C163.49 21.32 164.55 21.3 165.61 21.3C166.9 21.3 168.2 21.38 169.5 21.47C169.53 21.47 169.55 21.46 169.57 21.44C169.58 21.42 169.6 21.38 169.63 21.34C169.63 21.29 169.61 21.26 169.61 21.26C169.77 20.92 169.87 20.58 169.92 20.21C169.97 19.84 170.01 19.47 170.04 19.11V18.99" fill="white"/>
<path d="M175.65 21.4302C175.96 21.4302 176.26 21.4302 176.59 21.4502V21.2902C175.94 21.2302 175.52 21.0602 175.25 20.7602C174.99 20.4702 174.87 20.0002 174.87 19.3502V8.65019C174.87 8.41019 174.89 8.23019 174.97 8.08019C175.02 7.96019 175.12 7.85019 175.23 7.76019C175.35 7.69019 175.49 7.62019 175.64 7.56019C175.81 7.51019 175.98 7.47019 176.18 7.43019C176.2 7.41019 176.22 7.38019 176.2 7.34019C176.19 7.29019 176.18 7.26019 176.14 7.28019C175.81 7.33019 175.46 7.36019 175.1 7.38019C174.74 7.40019 174.4 7.41019 174.02 7.41019C173.26 7.41019 172.49 7.37019 171.73 7.29019C171.7 7.29019 171.68 7.32019 171.68 7.36019C171.68 7.40019 171.69 7.42019 171.73 7.43019C172.11 7.48019 172.44 7.59019 172.71 7.76019C172.99 7.93019 173.13 8.22019 173.13 8.64019V19.4002C173.13 20.3202 172.68 20.9602 171.82 21.2902C171.77 21.3202 171.77 21.3602 171.77 21.4002C171.77 21.4302 171.8 21.4502 171.83 21.4502C172.31 21.4402 172.79 21.4402 173.3 21.4302C173.8 21.4102 174.28 21.4102 174.77 21.4102H175.65" fill="white"/>
<path d="M185.06 19.3802C185.39 18.8902 185.55 18.3302 185.55 17.7202C185.55 17.2502 185.46 16.8002 185.29 16.4102C185.11 16.0202 184.89 15.6402 184.61 15.3102C184.32 14.9502 183.99 14.6302 183.65 14.3102C183.3 14.0002 182.93 13.7002 182.58 13.3702C182.25 13.1102 181.92 12.8402 181.61 12.5602C181.31 12.2902 181.02 12.0202 180.79 11.7302C180.55 11.4402 180.36 11.1502 180.21 10.8502C180.06 10.5502 179.98 10.2202 179.98 9.87016C179.98 9.55016 180.04 9.24016 180.16 8.96016C180.28 8.68016 180.47 8.43016 180.66 8.24016C180.88 8.04016 181.13 7.89016 181.42 7.78016C181.7 7.66016 182.02 7.60016 182.34 7.60016C182.66 7.60016 182.95 7.65016 183.22 7.78016C183.48 7.90016 183.71 8.06016 183.9 8.25016C184.11 8.47016 184.27 8.69016 184.4 8.96016C184.55 9.23016 184.63 9.51016 184.71 9.83016C184.72 9.87016 184.74 9.88016 184.79 9.88016C184.82 9.87016 184.85 9.84016 184.85 9.82016C184.85 9.79016 184.85 9.77016 184.86 9.73016C184.86 9.73016 184.87 9.70016 184.87 9.68016C184.92 9.26016 184.98 8.86016 185.03 8.45016C185.08 8.05016 185.11 7.63016 185.15 7.23016C185.15 7.18016 185.12 7.15016 185.08 7.15016C184.49 6.99016 183.87 6.91016 183.2 6.91016C182.72 6.91016 182.19 6.96016 181.62 7.08016C181.05 7.21016 180.53 7.39016 180.03 7.66016C179.55 7.94016 179.14 8.28016 178.81 8.69016C178.47 9.12016 178.31 9.62016 178.31 10.2102C178.31 10.5902 178.38 10.9802 178.58 11.3602C178.75 11.7402 178.98 12.1102 179.26 12.5002C179.54 12.8602 179.87 13.2402 180.22 13.5802C180.57 13.9302 180.93 14.2802 181.29 14.6202C181.64 14.9402 181.98 15.2602 182.3 15.6002C182.63 15.9302 182.93 16.2702 183.2 16.6002C183.47 16.9302 183.67 17.2602 183.84 17.6002C184 17.9402 184.08 18.2702 184.08 18.5902C184.08 18.9402 183.99 19.2502 183.82 19.5502C183.65 19.8302 183.43 20.0702 183.16 20.2702C182.89 20.4702 182.6 20.6302 182.27 20.7202C181.93 20.8402 181.61 20.9002 181.28 20.9002C180.9 20.9002 180.54 20.8402 180.23 20.7202C179.9 20.6302 179.63 20.4702 179.39 20.2602C179.14 20.0602 178.96 19.8002 178.83 19.4902C178.69 19.1802 178.64 18.8302 178.64 18.4402V18.2302C178.64 18.1902 178.6 18.1702 178.56 18.1702C178.52 18.1602 178.49 18.1802 178.49 18.2202C178.46 18.3302 178.43 18.4202 178.4 18.5402C178.38 18.6402 178.37 18.7502 178.34 18.8602C178.29 19.0402 178.24 19.2402 178.2 19.4402C178.16 19.6402 178.13 19.8602 178.13 20.0902C178.13 20.4202 178.21 20.6802 178.34 20.8802C178.5 21.1002 178.68 21.2702 178.91 21.4002C179.14 21.5302 179.4 21.6302 179.69 21.6902C179.96 21.7502 180.24 21.7702 180.5 21.7702C181.03 21.7702 181.61 21.6802 182.21 21.4802C182.8 21.3002 183.35 21.0202 183.82 20.6802C184.35 20.2902 184.75 19.8702 185.06 19.3802Z" fill="white"/>
<path d="M202.35 21.3098C201.75 21.2198 201.31 21.0298 201.03 20.7198C200.77 20.4398 200.63 19.9698 200.63 19.3598V8.7298C200.63 8.2798 200.75 7.9798 200.99 7.8498C201.23 7.7198 201.54 7.6198 201.93 7.5398C201.96 7.5198 201.98 7.5098 201.97 7.4598C201.95 7.4098 201.94 7.3898 201.9 7.3898C201.21 7.4398 200.54 7.4498 199.87 7.4498C199.47 7.4498 199.05 7.4498 198.62 7.4298C198.2 7.4098 197.79 7.3898 197.38 7.3698C197.33 7.3698 197.32 7.3898 197.31 7.4298C197.3 7.4698 197.32 7.4998 197.35 7.5198L197.74 7.6298C197.89 7.6798 198.04 7.7198 198.19 7.7598C198.33 7.7998 198.45 7.8498 198.56 7.9398C198.68 8.0098 198.75 8.0998 198.82 8.2498C198.87 8.3798 198.9 8.5498 198.9 8.7598V13.2198H190.88V8.6498C190.88 8.2898 191 8.0098 191.26 7.8098C191.53 7.6098 191.81 7.4998 192.15 7.4998C192.18 7.4998 192.2 7.4698 192.2 7.4198C192.2 7.3698 192.18 7.3498 192.15 7.3498C192.08 7.3498 192.02 7.3498 191.95 7.3498C191.87 7.3598 191.8 7.3698 191.74 7.3698C191.43 7.3698 191.14 7.3798 190.84 7.3898C190.55 7.3998 190.27 7.3998 189.96 7.3998C189.58 7.3998 189.2 7.3898 188.81 7.3698C188.44 7.3498 188.05 7.3298 187.65 7.2998V7.4498C188 7.4798 188.34 7.5698 188.66 7.7598C188.96 7.9698 189.13 8.2598 189.13 8.6598V19.6998C189.13 19.9998 189.11 20.2298 189.11 20.4198C189.06 20.5898 189.01 20.7398 188.92 20.8498C188.84 20.9598 188.69 21.0298 188.53 21.1198C188.35 21.1798 188.13 21.2398 187.84 21.2898C187.79 21.3098 187.78 21.3398 187.78 21.3898C187.78 21.4298 187.82 21.4498 187.86 21.4498C187.92 21.4498 187.99 21.4498 188.08 21.4598H188.33C188.57 21.4798 188.78 21.4798 188.99 21.4798H189.66H190.31C190.56 21.4598 190.77 21.4598 190.97 21.4598C191.25 21.4498 191.5 21.4498 191.77 21.4498H192.54C192.59 21.4498 192.61 21.4298 192.61 21.3898C192.61 21.3198 192.59 21.2898 192.54 21.2898C191.99 21.2398 191.56 21.0698 191.27 20.7798C190.99 20.4798 190.84 20.0398 190.84 19.4598V13.9798H198.9V19.4198C198.9 19.5498 198.88 19.7198 198.87 19.9298C198.83 20.1198 198.79 20.3198 198.72 20.5198C198.65 20.7098 198.55 20.8698 198.44 20.9998C198.33 21.1298 198.18 21.1998 198.02 21.1998C197.95 21.1998 197.89 21.2198 197.83 21.2198C197.75 21.2298 197.69 21.2598 197.62 21.2798C197.6 21.2898 197.58 21.3198 197.59 21.3698C197.6 21.4198 197.61 21.4298 197.65 21.4298C197.99 21.4198 198.33 21.4098 198.67 21.3998C199.02 21.3898 199.36 21.3898 199.69 21.3898C200.14 21.3898 200.58 21.3998 201.01 21.4198C201.46 21.4398 201.89 21.4498 202.34 21.4698L202.35 21.3098Z" fill="white"/>
</g>
<defs>
<clipPath id="clip0_4055_1082">
<rect width="202.35" height="28.65" fill="white"/>
</clipPath>
</defs>
</svg>
