<svg width="119" height="114" viewBox="0 0 119 114" fill="none" xmlns="http://www.w3.org/2000/svg">
<g clip-path="url(#clip0_2173_9321)">
<path opacity="0.75" d="M64.7958 0.0847128L61.1517 0.493478C55.8901 1.09167 51.7966 4.93008 50.6285 9.78541C50.309 11.1313 50.2091 12.557 50.3789 14.0126L51.7766 26.3155C51.7966 26.6246 51.8565 26.9236 51.9164 27.2327C50.5686 27.7312 49.2407 28.3095 47.9527 28.9774L38.388 21.2109C33.1464 16.9538 25.4387 17.7514 21.1755 22.9855L18.8592 25.827C17.691 27.2626 16.8724 28.9276 16.453 30.6923C16.1335 32.0183 16.0337 33.4041 16.1835 34.7899C16.5129 38.0102 18.1204 40.9712 20.6363 43.015L30.1611 50.7517C30.0313 51.2203 29.8916 51.6789 29.7817 52.1475C29.612 52.8753 29.4722 53.6031 29.3524 54.3408C29.013 54.3608 28.6735 54.3807 28.344 54.4306L15.5045 56.1753C10.3528 56.8732 6.39908 60.6817 5.25091 65.4373C4.91145 66.863 4.82159 68.3884 5.03126 69.9337L5.53046 73.5628C5.96976 76.7731 7.66705 79.6843 10.2529 81.6384C12.8388 83.6025 16.0936 84.4599 19.3085 84.0212L29.9315 82.5756L25.7182 87.7599C24.5501 89.1956 23.7414 90.8605 23.3121 92.6252C22.9926 93.9512 22.8927 95.337 23.0425 96.7228C23.372 99.9431 24.9794 102.904 27.4954 104.948L30.3408 107.261C35.5825 111.518 43.2902 110.721 47.5534 105.486L55.0414 96.2842C55.4907 95.7258 55.8701 95.1376 56.2195 94.5195C56.2395 94.5195 56.2695 94.5295 56.2894 94.5295C60.942 95.347 64.7759 95.8554 67.6712 96.0648C70.5267 96.2642 73.1126 97.2911 75.4189 99.1654L76.8366 100.302C77.815 101.08 78.8734 101.688 79.9716 102.127L81.6789 103.512C81.9185 103.712 82.1781 103.881 82.4277 104.061C82.6673 104.29 82.8969 104.509 83.1565 104.719L86.002 107.032C91.2436 111.289 98.9513 110.491 103.214 105.257L116.254 89.2454C117.422 87.8098 118.241 86.1448 118.66 84.3801C118.979 83.0541 119.079 81.6683 118.929 80.2825C118.6 77.0622 116.992 74.1012 114.477 72.0573L111.631 69.7443C111.332 69.505 111.032 69.2857 110.723 69.0763C110.533 68.8969 110.363 68.7074 110.153 68.5479L108.396 67.1222C107.727 66.1053 106.899 65.1681 105.91 64.3606L104.482 63.2041C102.306 61.4394 100.748 59.0666 99.9797 56.3448C99.2109 53.623 97.9729 50.1036 96.3155 45.8764C96.2656 45.7368 96.1957 45.6172 96.1358 45.4776C96.665 45.019 97.1642 44.5205 97.6234 43.9622L105.111 34.76C106.28 33.3243 107.088 31.6593 107.518 29.8947C107.837 28.5687 107.937 27.1829 107.787 25.7971C107.458 22.5768 105.85 19.6157 103.334 17.5719L100.489 15.2589C95.2472 11.0017 87.5395 11.7993 83.2763 17.0335L79.5523 21.6097L78.3242 10.8422C77.9548 7.62195 76.3274 4.68083 73.7915 2.65694C71.2555 0.643027 68.0207 -0.284173 64.7958 0.0847128Z" fill="#CFD8DC"/>
<path d="M59.874 3.09566L56.2298 3.50443C50.9682 4.10262 46.8747 7.94103 45.7066 12.7964C45.3871 14.1423 45.2873 15.568 45.457 17.0236L46.8548 29.3264C46.8947 29.6355 46.9446 29.9346 47.0045 30.2437C45.6567 30.7422 44.3288 31.3204 43.0408 31.9884L33.4761 24.2219C28.2345 19.9647 20.5268 20.7623 16.2636 25.9965L13.9473 28.8379C12.7792 30.2736 11.9605 31.9385 11.5411 33.7032C11.2216 35.0292 11.1218 36.415 11.2716 37.8008C11.601 41.0211 13.2085 43.9822 15.7245 46.026L25.2492 53.7626C25.1195 54.2312 24.9797 54.6898 24.8699 55.1584C24.7001 55.8862 24.5603 56.614 24.4405 57.3518C24.1011 57.3717 23.7616 57.3917 23.4321 57.4415L10.5827 59.1863C5.43089 59.8841 1.4772 63.6926 0.329034 68.4483C-0.0104243 69.874 -0.100281 71.3994 0.109384 72.9447L0.608587 76.5737C1.04789 79.784 2.74518 82.6952 5.33105 84.6493C7.91692 86.6134 11.1717 87.4708 14.3866 87.0321L25.0096 85.5865L20.7964 90.7709C19.6282 92.2065 18.8195 93.8715 18.3902 95.6362C18.0707 96.9621 17.9709 98.348 18.1206 99.7338C18.4501 102.954 20.0575 105.915 22.5735 107.959L25.419 110.272C30.6606 114.529 38.3683 113.732 42.6315 108.497L50.1195 99.2951C50.5688 98.7368 50.9482 98.1486 51.2977 97.5304C51.3176 97.5304 51.3476 97.5404 51.3675 97.5404C56.0201 98.3579 59.854 98.8664 62.7494 99.0758C65.6048 99.2752 68.1907 100.302 70.497 102.176L71.9147 103.313C72.8932 104.091 73.9515 104.699 75.0497 105.137L76.757 106.523C76.9966 106.723 77.2562 106.892 77.5058 107.072C77.7454 107.301 77.9751 107.52 78.2347 107.73L81.0801 110.043C86.3217 114.3 94.0294 113.502 98.2926 108.268L111.332 92.2564C112.5 90.8207 113.319 89.1557 113.738 87.3911C114.057 86.0651 114.157 84.6792 114.008 83.2934C113.678 80.0732 112.071 77.1121 109.555 75.0683L106.709 72.7553C106.41 72.516 106.11 72.2967 105.801 72.0873C105.611 71.9078 105.441 71.7184 105.232 71.5589L103.474 70.1332C102.805 69.1163 101.977 68.1791 100.988 67.3715L99.5606 66.215C97.3841 64.4504 95.8266 62.0775 95.0578 59.3557C94.289 56.634 93.051 53.1146 91.3936 48.8874C91.3437 48.7478 91.2738 48.6281 91.2139 48.4886C91.7431 48.0299 92.2423 47.5315 92.7016 46.9731L100.19 37.7709C101.358 36.3353 102.166 34.6703 102.596 32.9056C102.915 31.5796 103.015 30.1938 102.865 28.808C102.536 25.5877 100.928 22.6267 98.4124 20.5828L95.567 18.2698C90.3253 14.0127 82.6177 14.8103 78.3545 20.0445L74.6304 24.6206L73.4024 13.8532C73.033 10.6329 71.4056 7.69178 68.8696 5.66789C66.3337 3.66394 63.0988 2.72677 59.874 3.09566Z" fill="white"/>
<path d="M72.2544 45.9462C63.2987 39.4059 50.6688 40.7918 43.3605 49.1267C35.2734 58.3489 36.5214 72.3468 45.9563 80.0137C45.9763 80.0237 45.9863 80.0337 46.0063 80.0536C48.2627 81.8781 50.9783 83.0446 53.8338 83.5531C56.5993 84.0416 60.7328 84.6996 63.7779 84.909C69.4588 85.3078 74.8702 87.4414 79.2831 91.0206L79.343 91.0605L90.7848 77.0028L90.7348 76.9629C86.3119 73.3737 83.117 68.5084 81.5695 63.0348C80.7608 60.1934 79.363 56.4546 78.3446 53.8824C77.496 51.7288 76.238 49.7648 74.6206 48.1097C73.8318 47.2922 72.9732 46.4747 72.2544 45.9462Z" fill="#FFD95C" stroke="#2576B9" stroke-width="3.6769" stroke-miterlimit="10"/>
<path d="M73.8613 86.6235L85.3031 72.5658" stroke="#2576B9" stroke-width="3.6769" stroke-miterlimit="10"/>
<path d="M96.1359 79.7242L83.0967 95.746" stroke="#2576B9" stroke-width="3.6769" stroke-miterlimit="10"/>
<path d="M100.459 83.2435L87.4199 99.2554" stroke="#2576B9" stroke-width="3.6769" stroke-miterlimit="10"/>
<path d="M24.6299 34.9793L35.7322 43.9922" stroke="#2576B9" stroke-width="3.6769" stroke-miterlimit="10"/>
<path d="M31.749 99.4846L39.2371 90.2823" stroke="#2576B9" stroke-width="3.6769" stroke-miterlimit="10"/>
<path d="M81.8291 37.9704L89.3171 28.7681" stroke="#2576B9" stroke-width="3.6769" stroke-miterlimit="10"/>
<path d="M25.359 71.2099L12.5195 72.965" stroke="#2576B9" stroke-width="3.6769" stroke-miterlimit="10"/>
<path d="M60.8626 27.6017L59.4648 15.2988" stroke="#2576B9" stroke-width="3.6769" stroke-miterlimit="10"/>
<path d="M54.9023 53.0547L56.0305 67.5511L65.7051 63.7326L67.013 79.1263" stroke="#2576B9" stroke-width="3.6769" stroke-miterlimit="10"/>
</g>
<defs>
<clipPath id="clip0_2173_9321">
<rect width="119" height="112.999" fill="white" transform="translate(0 0.00495911)"/>
</clipPath>
</defs>
</svg>
