<svg width="92" height="94" viewBox="0 0 92 94" fill="none" xmlns="http://www.w3.org/2000/svg">
<g clip-path="url(#clip0_3576_1153)">
<path d="M77.4578 1.47888C77.4578 1.47888 77.4578 14.5092 64.3979 14.5092C64.3979 14.5092 77.4578 14.5092 77.4578 27.5395C77.4578 27.5395 77.4578 14.5092 90.5177 14.5092C90.5177 14.5092 77.4578 14.5092 77.4578 1.47888Z" stroke="#2576B9" stroke-width="2.9625" stroke-miterlimit="10" stroke-linecap="round" stroke-linejoin="round"/>
<path opacity="0.85" d="M66.932 53.2304L47.6827 50.2426L44.578 31.0569C44.2876 29.2383 42.9155 27.8693 41.0827 27.5895C39.2799 27.3097 37.5173 28.2091 36.696 29.8378L27.9026 47.1749L8.66335 44.1872C6.86061 43.9074 5.09793 44.8067 4.27668 46.4355C3.45543 48.0543 3.7659 50.0128 5.05787 51.2919L18.8689 64.9917L10.0755 82.3387C9.24424 83.9875 9.54469 85.8961 10.8567 87.1951C12.1487 88.4742 14.1116 88.7839 15.7241 87.9546L33.0505 79.0812L46.8715 92.781C47.873 93.7702 49.2651 94.1799 50.5972 93.9301C50.9878 93.8602 51.3783 93.7303 51.7489 93.5404C53.3714 92.711 54.2627 90.9423 53.9723 89.1537L50.8676 69.968L68.1939 61.0946C69.8164 60.2652 70.7078 58.5065 70.4173 56.7078C70.1369 54.8992 68.7348 53.5102 66.932 53.2304Z" fill="#CFD8DC"/>
<path d="M38.5287 29.8383L41.6735 49.2639C41.8037 50.0832 42.4547 50.7328 43.2859 50.8627L62.7756 53.8804C64.6184 54.1702 65.019 56.6484 63.3565 57.4977L45.8098 66.481C45.0686 66.8608 44.648 67.6801 44.7882 68.4995L47.933 87.9251C48.2335 89.7637 45.99 90.9128 44.668 89.5938L30.6767 75.7242C30.0858 75.1346 29.1745 74.9947 28.4333 75.3744L10.8866 84.3577C9.2241 85.2071 7.44139 83.4384 8.28267 81.7796L17.1862 64.2227C17.5668 63.4733 17.4166 62.5739 16.8257 61.9844L2.84439 48.1147C1.52238 46.7957 2.6541 44.5574 4.49691 44.8471L23.9866 47.8649C24.8178 47.9948 25.6291 47.5751 26.0096 46.8357L34.9132 29.2787C35.7445 27.61 38.2282 27.9997 38.5287 29.8383Z" fill="#EB9CC3" stroke="#2576B9" stroke-width="4.5202" stroke-miterlimit="10"/>
</g>
<defs>
<clipPath id="clip0_3576_1153">
<rect width="92" height="94" fill="white"/>
</clipPath>
</defs>
</svg>
